<?xml version="1.0" encoding="UTF-8"?>
<svg version="1.1" xmlns="http://www.w3.org/2000/svg" width="853" height="824">
<path d="M0 0 C281.49 0 562.98 0 853 0 C853 271.92 853 543.84 853 824 C571.51 824 290.02 824 0 824 C0 552.08 0 280.16 0 0 Z " fill="#000000" transform="translate(0,0)"/>
<path d="M0 0 C7.49296555 -0.10125241 14.98575533 -0.17140327 22.47924805 -0.21972656 C25.02944532 -0.23986697 27.57959628 -0.26718097 30.12963867 -0.30175781 C33.79096897 -0.35016739 37.45168982 -0.37294474 41.11328125 -0.390625 C42.82902092 -0.42159271 42.82902092 -0.42159271 44.579422 -0.45318604 C45.64029526 -0.45348816 46.70116852 -0.45379028 47.79418945 -0.45410156 C49.19650566 -0.46742523 49.19650566 -0.46742523 50.62715149 -0.48101807 C53 0 53 0 54.74528503 1.8213501 C57.06299953 5.84576089 58.26718403 10.29558246 59.71875 14.6875 C60.78700535 17.90403042 60.78700535 17.90403042 62.4609375 19.92236328 C64.06794608 22.0917229 64.95264737 24.03615856 65.90625 26.5546875 C66.24527344 27.43350586 66.58429688 28.31232422 66.93359375 29.21777344 C67.28550781 30.1359082 67.63742187 31.05404297 68 32 C69.48611754 35.71397168 70.9939802 39.41906049 72.5 43.125 C72.87769531 44.06214844 73.25539063 44.99929688 73.64453125 45.96484375 C75.60931312 50.79240057 77.69185122 55.48289206 80.07128906 60.11914062 C81.60933696 63.2340515 82.86551635 66.45215973 84.125 69.6875 C84.37636719 70.32494141 84.62773437 70.96238281 84.88671875 71.61914062 C85.5934445 73.41185594 86.29682152 75.20589033 87 77 C87.38929688 77.91394531 87.77859375 78.82789063 88.1796875 79.76953125 C89 82 89 82 89 85 C89.66 85 90.32 85 91 85 C99.95234839 106.46958838 99.95234839 106.46958838 102.25 113.8125 C103.61037636 118.12753994 105.41858527 121.77159556 107.7109375 125.66015625 C110.68390597 131.05654447 112.79382241 136.90429706 115.02734375 142.63671875 C116.65282344 146.79507443 118.36797939 150.7914777 120.4375 154.75 C123.7649783 161.24994984 128 169.60978615 128 177 C128.99 177.33 129.98 177.66 131 178 C132.2109375 180.7734375 132.2109375 180.7734375 133.375 184.375 C135.23821497 189.95320097 137.36850784 195.27414198 139.88671875 200.59765625 C143 207.31578947 143 207.31578947 143 211 C143.66 211 144.32 211 145 211 C145.33 213.31 145.66 215.62 146 218 C128.51 218 111.02 218 93 218 C92.01 215.36 91.02 212.72 90 210 C89.40276158 208.47643259 88.79959484 206.95515981 88.1875 205.4375 C86.97667359 202.43354135 85.77408431 199.42709779 84.5859375 196.4140625 C84.33432861 195.77799072 84.08271973 195.14191895 83.82348633 194.48657227 C83.10090337 192.6595988 82.3804693 190.83177586 81.66015625 189.00390625 C80.40351131 185.89918366 79.02861783 182.86125562 77.625 179.8203125 C74.35192376 172.67721473 71.52410811 165.3677051 68.66210938 158.05273438 C66.35268721 152.20577871 63.8750493 146.58899669 61 141 C60.3270158 139.44900058 59.67624753 137.88787961 59.0625 136.3125 C58.72992188 135.466875 58.39734375 134.62125 58.0546875 133.75 C57.32101963 131.83702895 56.59782117 129.92002328 55.8828125 128 C53.46937017 121.56415379 50.79328156 115.36443503 47.80639648 109.17382812 C44.7109858 102.62690497 42.2157129 95.86267558 39.75268555 89.05664062 C39.43726807 88.19876953 39.12185059 87.34089844 38.796875 86.45703125 C38.52198242 85.69366455 38.24708984 84.93029785 37.96386719 84.14379883 C36.91338268 81.80734887 35.53883297 80.03972487 34 78 C33.12451172 76.04882812 33.12451172 76.04882812 32.4296875 74.03125 C32.17316406 73.29519531 31.91664063 72.55914062 31.65234375 71.80078125 C31.39582031 71.04152344 31.13929688 70.28226562 30.875 69.5 C30.61074219 68.74074219 30.34648437 67.98148437 30.07421875 67.19921875 C28.90836412 63.82001573 27.83098103 60.47906643 27 57 C24.80241883 57.82801893 24.80241883 57.82801893 24.10546875 60.1171875 C23.80253906 61.02726562 23.49960937 61.93734375 23.1875 62.875 C21.45979688 67.83973796 19.43388677 72.5584755 17.21484375 77.3203125 C16.07528805 79.83393053 15.0538325 82.36250355 14.0625 84.9375 C12.62701936 88.61555883 10.9586901 92.06658172 9.125 95.5625 C6.19127193 101.27398578 4.07479204 107.12112631 2.09228516 113.21313477 C0.30188377 118.60000024 0.30188377 118.60000024 -1.46704102 120.94384766 C-3.08284438 123.11111886 -3.96533123 125.06428129 -4.921875 127.5859375 C-5.42944336 128.90223145 -5.42944336 128.90223145 -5.94726562 130.24511719 C-6.29466797 131.15422852 -6.64207031 132.06333984 -7 133 C-7.7104057 134.78510536 -8.42393336 136.56897155 -9.140625 138.3515625 C-9.48867187 139.22167969 -9.83671875 140.09179688 -10.1953125 140.98828125 C-11.796875 144.9921875 -13.3984375 148.99609375 -15 153 C-15.66 153 -16.32 153 -17 153 C-17.33 154.258125 -17.66 155.51625 -18 156.8125 C-21.30187189 167.82917209 -26.27804069 178.43395389 -31.1875 188.8125 C-33.75029687 194.26452045 -35.80176275 199.80948106 -37.7265625 205.515625 C-39.27725316 209.75861908 -41.16527694 213.87187312 -43 218 C-59.5 218 -76 218 -93 218 C-89.66666667 208 -89.66666667 208 -87.0625 203.1171875 C-83.56026454 196.13846831 -80.89001371 188.73516029 -78.04882812 181.47070312 C-76.1949385 176.7877565 -74.19929622 172.26118603 -71.8996582 167.78051758 C-70.66585942 165.33870089 -69.60499246 162.84117548 -68.5625 160.3125 C-68.14097656 159.29027344 -67.71945313 158.26804687 -67.28515625 157.21484375 C-65.9800317 153.9500489 -64.73665028 150.66627301 -63.5 147.375 C-61.68463885 142.59833098 -59.59586286 138.11320595 -57.24609375 133.58203125 C-55.84063251 130.66977458 -54.69744176 127.71522003 -53.5625 124.6875 C-50.40876176 116.28412224 -46.68944709 108.18577957 -42.5 100.25 C-40.26970286 95.87464001 -38.69444256 91.39002405 -37.125 86.75 C-34.83759616 79.99223277 -32.04247429 73.892484 -28.73828125 67.5625 C-26.19240718 62.34488843 -24.22712613 56.95301403 -22.26171875 51.49609375 C-21.84535156 50.34238281 -21.42898437 49.18867188 -21 48 C-20.48373047 46.56333984 -20.48373047 46.56333984 -19.95703125 45.09765625 C-19 43 -19 43 -17 42 C-16.10410924 39.77238173 -16.10410924 39.77238173 -15.3125 37 C-13.63282695 31.74868016 -11.72664408 26.65501198 -9.625 21.5625 C-9.35727783 20.90830078 -9.08955566 20.25410156 -8.8137207 19.58007812 C-6.06485287 12.96804492 -3.02445021 6.48942088 0 0 Z " fill="#FBFBFB" transform="translate(265,316)"/>
<path d="M0 0 C7.49289965 -0.1265644 14.98552473 -0.21425223 22.47924805 -0.2746582 C25.02948304 -0.29983408 27.57964566 -0.33397705 30.12963867 -0.37719727 C33.79103424 -0.43771032 37.45147768 -0.46617964 41.11328125 -0.48828125 C42.2571077 -0.51408768 43.40093414 -0.5398941 44.579422 -0.56648254 C45.64029526 -0.5668602 46.70116852 -0.56723785 47.79418945 -0.56762695 C48.72906693 -0.57873001 49.6639444 -0.58983307 50.62715149 -0.60127258 C53 0 53 0 54.75640869 2.38369751 C55.94620478 4.88682409 57.08338225 7.37920885 58.12109375 9.94921875 C58.49943359 10.88056641 58.87777344 11.81191406 59.26757812 12.77148438 C59.65365234 13.73376953 60.03972656 14.69605469 60.4375 15.6875 C60.81970703 16.63044922 61.20191406 17.57339844 61.59570312 18.54492188 C63.10510445 22.2735788 64.60567339 26.00551501 66.08837891 29.74487305 C67.78936572 34.03166314 69.5251132 38.2675532 71.5 42.4375 C73.60896954 47.01015872 75.35912665 51.63867365 77.0390625 56.3828125 C78.80037932 61.17989491 80.94619519 65.79951266 83.15234375 70.40625 C86.19201125 76.85461812 88.6310572 83.39687066 90.85693359 90.16210938 C92.14226129 93.97322476 93.52441759 96.85943401 96 100 C96.85328628 101.93228054 97.63927812 103.89496998 98.375 105.875 C98.80296875 107.01582031 99.2309375 108.15664063 99.671875 109.33203125 C100.57458077 111.82509217 101.46246519 114.31852941 102.328125 116.82421875 C102.75609375 118.05785156 103.1840625 119.29148437 103.625 120.5625 C104.00914062 121.69816406 104.39328125 122.83382812 104.7890625 124.00390625 C105.92556422 126.81583148 107.180757 128.61698118 109 131 C109.85328628 132.93228054 110.63927812 134.89496998 111.375 136.875 C111.80039062 138.01453125 112.22578125 139.1540625 112.6640625 140.328125 C117.97674419 154.93023256 117.97674419 154.93023256 120 161 C123.26300966 159.36849517 123.71290347 155.83790152 124.875 152.5625 C125.41343273 151.08961338 125.95249385 149.61695632 126.4921875 148.14453125 C126.75225586 147.42861816 127.01232422 146.71270508 127.28027344 145.97509766 C129.94369032 138.66606016 133.03337091 131.75985888 136.6328125 124.859375 C138.02618727 121.94523119 138.98988712 119.06720406 140 116 C141.28329799 112.72884826 142.63911115 109.48950716 144 106.25 C144.53367187 104.95642578 144.53367187 104.95642578 145.078125 103.63671875 C145.42359375 102.81300781 145.7690625 101.98929687 146.125 101.140625 C146.59292969 100.01962402 146.59292969 100.01962402 147.0703125 98.87597656 C148 97 148 97 150 95 C150.95509146 92.65514697 151.83866363 90.32045629 152.6875 87.9375 C154.92280955 81.83368203 157.23842913 75.77147859 159.6875 69.75 C159.97262451 69.03577881 160.25774902 68.32155762 160.55151367 67.58569336 C161.6705369 64.85404677 162.73226309 62.35286352 164.5234375 59.9921875 C166.68791034 57.071867 167.73105803 53.76848949 168.9375 50.375 C169.46284854 48.9385484 169.98888978 47.50234995 170.515625 46.06640625 C170.89557617 45.02250732 170.89557617 45.02250732 171.28320312 43.95751953 C172.22084307 41.39689382 173.19195067 38.85115079 174.1875 36.3125 C174.46980469 35.58675781 174.75210938 34.86101562 175.04296875 34.11328125 C176 32 176 32 177.43359375 29.70703125 C179.34524175 26.40336026 180.60287604 22.95757614 181.875 19.375 C184.24522541 12.71453418 187.05408057 6.48102274 190 0 C206.17 0 222.34 0 239 0 C235.78249084 11.7975336 235.78249084 11.7975336 233.02734375 16.2265625 C230.19898498 21.10897649 228.49910636 26.63863072 226.5546875 31.91796875 C221.8274736 44.72970763 221.8274736 44.72970763 219.05859375 49.96875 C214.84519769 58.05349521 211.41109126 66.42248816 208.21484375 74.94921875 C207.10750251 77.73003388 205.8768842 80.34488686 204.5 83 C202.03056936 87.76908792 200.13880377 92.67618124 198.25 97.69921875 C195.69723738 104.44010756 193.03335797 111.11041839 189.6875 117.5 C186.6621021 123.378463 184.3286909 129.53527023 181.94213867 135.69335938 C180.12445726 140.34676911 178.15581391 144.82732757 175.87280273 149.27099609 C174.80524158 151.38581235 173.91294185 153.539635 173.0625 155.75 C169.93046842 163.73241511 166.6728231 171.6244015 163 179.375 C160.33396682 185.07030481 158.18419875 190.85235902 156.17578125 196.80859375 C154.99316987 200.01853894 153.58016915 202.96857024 152 206 C151.63777344 206.72445312 151.27554688 207.44890625 150.90234375 208.1953125 C149.26822917 211.46354167 147.63411458 214.73177083 146 218 C128.51 218 111.02 218 93 218 C93 217.01 93 216.02 93 215 C92.34 215 91.68 215 91 215 C90.80889648 214.46632813 90.61779297 213.93265625 90.42089844 213.3828125 C89.53569546 210.9200095 88.64289735 208.46002331 87.75 206 C87.29947266 204.74123047 87.29947266 204.74123047 86.83984375 203.45703125 C84.88837681 198.10087731 82.65485038 193.04202503 80 188 C77.68236084 183.5434451 75.82691317 179.0316475 74.125 174.3125 C71.70364506 167.725901 68.99541083 161.34863525 66 155 C63.48686307 149.5465922 61.20287057 144.022984 59 138.4375 C57.16864332 133.79612515 55.22903249 129.28457872 52.921875 124.859375 C51.01878695 121.02094317 49.55293819 116.98944466 48 113 C43.86974464 102.33019279 43.86974464 102.33019279 38.98828125 91.9921875 C35.85664787 85.67940875 33.39937906 79.01762671 30.81542969 72.46777344 C28.2067885 65.86665935 25.39213689 59.41486393 22.37109375 52.98828125 C20.78233065 49.52559245 19.38173281 46.01230972 17.99609375 42.46484375 C16.15432729 37.90737459 14.05654874 33.46357041 12 29 C9.43335253 23.41376728 7.05464653 17.76101692 4.75 12.0625 C4.47937744 11.39895508 4.20875488 10.73541016 3.92993164 10.05175781 C2 5.23594127 2 5.23594127 2 3 C1.34 3 0.68 3 0 3 C0 2.01 0 1.02 0 0 Z " fill="#FBFBFB" transform="translate(356,313)"/>
<path d="M0 0 C4.09395464 1.87463211 7.74980027 4.0587953 10.22265625 7.8984375 C11.68954115 11.86418662 11.53320543 15.84626389 11 20 C8.73869423 24.43885947 5.60290094 27.59185046 2 31 C1.67 31.33 1.34 31.66 1 32 C-0.91240484 32.15252309 -2.83172799 32.22192773 -4.75 32.25 C-5.79671875 32.27578125 -6.8434375 32.3015625 -7.921875 32.328125 C-11.40062467 31.95729382 -13.22282296 31.09402119 -16 29 C-17.3125 26.3125 -17.3125 26.3125 -18 24 C-18.66 24 -19.32 24 -20 24 C-21.58935702 19.23192894 -22.05509789 14.49545974 -20.05859375 9.7734375 C-15.06044857 1.40663647 -9.86397993 -1.8032378 0 0 Z " fill="#E5E5E5" transform="translate(633,315)"/>
<path d="M0 0 C2.76550273 2.28454574 4.53908823 4.21692337 5.265625 7.7890625 C5.36646725 16.08333772 2.89669344 22.90089061 -0.203125 30.484375 C-6.03009514 29.35657433 -11.2249481 27.79322803 -16.6953125 25.50390625 C-20.4676755 23.97028204 -24.32501654 22.72087335 -28.203125 21.484375 C-28.90181861 13.27472507 -25.91069148 7.24465384 -20.703125 0.984375 C-14.80974521 -5.76622367 -7.00063978 -4.53641458 0 0 Z " fill="#E8E8E8" transform="translate(602.203125,416.515625)"/>
<path d="M0 0 C6.62894341 1.32445085 12.75290042 3.21668115 19.0625 5.625 C20.3609082 6.11226563 20.3609082 6.11226563 21.68554688 6.609375 C23.79244496 7.40091682 25.89712802 8.19783722 28 9 C27.671875 11.8984375 27.671875 11.8984375 27 15 C24.54422351 16.45114065 22.69432719 17.18152622 20 18 C18.91589844 18.35191406 17.83179688 18.70382812 16.71484375 19.06640625 C7.4847561 22 7.4847561 22 5 22 C5 22.66 5 23.32 5 24 C5.78375 24.0825 6.5675 24.165 7.375 24.25 C12.177645 25.24365069 16.49809489 27.08713518 21 29 C20.34 30.98 19.68 32.96 19 35 C12.37105659 33.67554915 6.24709958 31.78331885 -0.0625 29.375 C-1.3609082 28.88773437 -1.3609082 28.88773437 -2.68554688 28.390625 C-4.79244496 27.59908318 -6.89712802 26.80216278 -9 26 C-8.703125 23.1015625 -8.703125 23.1015625 -8 20 C-5.2281868 18.6140934 -2.95638629 17.81112247 0 17 C2.31450034 16.31926461 4.62692306 15.63143565 6.9375 14.9375 C8.62166016 14.45603516 8.62166016 14.45603516 10.33984375 13.96484375 C13.13942996 13.29475986 13.13942996 13.29475986 14 11 C13.16855469 10.80664062 12.33710937 10.61328125 11.48046875 10.4140625 C10.39378906 10.15367187 9.30710937 9.89328125 8.1875 9.625 C7.10855469 9.36976563 6.02960937 9.11453125 4.91796875 8.8515625 C2 8 2 8 -1 6 C-0.67 4.02 -0.34 2.04 0 0 Z " fill="#ECECEC" transform="translate(567,452)"/>
<path d="M0 0 C-0.33 1.98 -0.66 3.96 -1 6 C-3.64 6 -6.28 6 -9 6 C-9.53293835 7.74635165 -10.05090663 9.49727652 -10.5625 11.25 C-10.85253906 12.22453125 -11.14257812 13.1990625 -11.44140625 14.203125 C-12.0000513 17.00025684 -12.05787671 18.38710234 -11 21 C-10.34 21.66 -9.68 22.32 -9 23 C-9.375 26.625 -9.375 26.625 -10 30 C-15.57989419 27.57216173 -19.5103595 23.06018297 -23.8125 18.875 C-24.70904297 18.04484375 -25.60558594 17.2146875 -26.52929688 16.359375 C-32.823426 10.2145328 -32.823426 10.2145328 -33.34912109 6.59863281 C-33.07421875 4.3828125 -33.07421875 4.3828125 -32 1 C-21.30759925 0.12842148 -10.72407184 -0.11813543 0 0 Z " fill="#EFEFEF" transform="translate(581,499)"/>
<path d="M0 0 C0.33 2.31 0.66 4.62 1 7 C0.360625 7.103125 -0.27875 7.20625 -0.9375 7.3125 C-1.618125 7.539375 -2.29875 7.76625 -3 8 C-4.40449969 12.21349906 -4.67828466 16.15894163 -3.125 20.375 C-2.08249579 22.15909903 -2.08249579 22.15909903 0 23 C1.87379605 23.07033769 3.75001102 23.0843022 5.625 23.0625 C6.62789062 23.05347656 7.63078125 23.04445313 8.6640625 23.03515625 C9.82035156 23.01775391 9.82035156 23.01775391 11 23 C12.46268367 19.73884146 13.20645195 17.37783736 12.9375 13.8125 C12.958125 12.554375 12.97875 11.29625 13 10 C16 8 16 8 18.1875 8.375 C18.785625 8.58125 19.38375 8.7875 20 9 C20.74545762 15.33047344 20.75500247 19.81655331 16.75 25 C10.98207696 31.7045943 10.98207696 31.7045943 6.5625 32.36328125 C5.716875 32.34652344 4.87125 32.32976562 4 32.3125 C3.154375 32.30863281 2.30875 32.30476563 1.4375 32.30078125 C-3.0353281 31.74884573 -5.47296338 29.90879578 -8.25 26.4375 C-11.49477575 21.91447925 -11.80075425 18.40997387 -11 13 C-9.98739306 7.02561904 -6.94405608 0 0 0 Z " fill="#E2E2E2" transform="translate(610,353)"/>
<path d="M0 0 C2.3515625 0.4765625 2.3515625 0.4765625 4.9765625 2.4765625 C6.74919808 6.34413104 7.143395 9.29838249 6.3515625 13.4765625 C4.9765625 16.4765625 4.9765625 16.4765625 2.3515625 18.4765625 C-1.11948504 19.17999738 -4.17738996 19.17999738 -7.6484375 18.4765625 C-10.43447643 16.35386617 -11.3642609 14.97604752 -12.015625 11.5390625 C-12.24456133 7.98381593 -11.76945409 5.7405987 -10.2734375 2.4765625 C-6.79590645 -0.17298496 -4.29412814 -0.24067385 0 0 Z " fill="#0B0B0B" transform="translate(630.6484375,321.5234375)"/>
<path d="M0 0 C3.24234878 0.06030119 4.90921556 0.16673196 7.8125 1.6875 C9.96728005 5.801171 9.70158928 9.76648197 9.1875 14.3125 C8.1875 17.4375 8.1875 17.4375 7.1875 19.3125 C3.13403511 18.41173002 -0.54956161 16.83615738 -4.375 15.25 C-6.5152953 14.4268095 -8.57756102 13.80915311 -10.8125 13.3125 C-10.12321534 6.07501103 -7.56949514 0.21057161 0 0 Z " fill="#151515" transform="translate(591.8125,419.6875)"/>
<path d="M0 0 C3.3 0 6.6 0 10 0 C9.25 5.75 9.25 5.75 7 8 C5.8274869 7.04882866 4.66212985 6.08882991 3.5 5.125 C2.8503125 4.59132813 2.200625 4.05765625 1.53125 3.5078125 C1.0259375 3.01023437 0.520625 2.51265625 0 2 C0 1.34 0 0.68 0 0 Z " fill="#1A1A1A" transform="translate(556,506)"/>
<path d="M0 0 C0 0.33 0 0.66 0 1 C-0.87736816 1.06731323 -0.87736816 1.06731323 -1.77246094 1.13598633 C-4.43293157 1.34784253 -7.09126146 1.57995193 -9.75 1.8125 C-10.67039062 1.88275391 -11.59078125 1.95300781 -12.5390625 2.02539062 C-13.87324219 2.14624023 -13.87324219 2.14624023 -15.234375 2.26953125 C-16.05131836 2.33760986 -16.86826172 2.40568848 -17.70996094 2.47583008 C-20.40568672 3.09285814 -21.91555683 4.21901492 -24 6 C-23.67 4.35 -23.34 2.7 -23 1 C-7.25512528 -0.14806378 -7.25512528 -0.14806378 0 0 Z " fill="#C4C4C4" transform="translate(572,499)"/>
<path d="M0 0 C0.66 0 1.32 0 2 0 C2.66 1.98 3.32 3.96 4 6 C2.02 6.33 0.04 6.66 -2 7 C-1.34 4.69 -0.68 2.38 0 0 Z " fill="#3D3D3D" transform="translate(290,373)"/>
</svg>
